# xmcd
#
# Track frame offsets: 
#        150
#        13955
#        25927
#        38248
#        51463
#        63706
#        76969
#        90950
#        104271
#        118481
#        131497
#        145385
#        158486
#        172699
#        187872
#        201267
#        215281
#        230090
#        247694
#        262311
#        276710
#        290344
#
# Disc length: 4026 seconds
#
# Revision: 0
# Processed by: cddbd v1.5.2PL0 Copyright (c) Steve Scherf et al.
# Submitted via: ExactAudioCopyFreeDBPlugin 1.0
#
DISCID=450fb816
DTITLE=Helen Gross - In Chronological Order 1924-1925
DYEAR=1996
DGENRE=Blues
TTITLE0=He's Never Gonna Throw Me Down
TTITLE1=Hard Luck Blues
TTITLE2=Eavesdropper's Blues
TTITLE3=Haunted House Blues
TTITLE4=Foolish Woman's Blues
TTITLE5=Strange Man
TTITLE6=Ghost Walkin' Blues
TTITLE7=My Man Ain't Yo' Man
TTITLE8=Rockin' Chair Blues
TTITLE9=Sorrowful Blues
TTITLE10=What'll I Do
TTITLE11=Neglected Blues
TTITLE12=If You Can't Ride Slow and Easy
TTITLE13=Ticket Agent, Ease Your Window Down
TTITLE14=Death Letter Blues
TTITLE15=Crap Shooting Blues
TTITLE16=Bloody Razor Blues
TTITLE17=Undertaker's Blues
TTITLE18=Last Journey Blues
TTITLE19=Bitter Feelin' Blues
TTITLE20=Workin' Woman's Blues
TTITLE21=Dark Man (You Ain't Gonna Darken My Life)
EXTD=
EXTT0=
EXTT1=
EXTT2=
EXTT3=
EXTT4=
EXTT5=
EXTT6=
EXTT7=
EXTT8=
EXTT9=
EXTT10=
EXTT11=
EXTT12=
EXTT13=
EXTT14=
EXTT15=
EXTT16=
EXTT17=
EXTT18=
EXTT19=
EXTT20=
EXTT21=
PLAYORDER=
